<svg version="1.1" xmlns="http://www.w3.org/2000/svg" x="0" y="0" viewBox="0 0 142.2 142.2" xml:space="preserve">
  <style>
    .st1{fill:#fff}
  </style>
  <path d="M115.3 142.2H26.8C12 142.2 0 130.1 0 115.3V0h142.2v115.3c0 14.8-12.1 26.9-26.9 26.9z" fill="#fed200"/>
  <path class="st1" d="M71.1 110.9c-37 0-47.4-16.7-47.5-16.9l-2.2 1.3c.4.7 11.1 18.1 49.7 18.1s50.1-19.8 50.5-20.6l-2.2-1.2c-.1.1-11.3 19.3-48.3 19.3zM44.7 29.2c-10.3 0-18.6 8.3-18.6 18.6s8.3 18.6 18.6 18.6 18.6-8.3 18.6-18.6S55 29.2 44.7 29.2zm-.3 24.1-15.7-5.6L44.4 42l15.7 5.9-15.7 5.4zM96.1 23.2c-11.6 0-20.9 9.4-20.9 20.9 0 11.6 9.4 20.9 20.9 20.9S117 55.7 117 44.1c0-11.5-9.4-20.9-20.9-20.9zm-.4 38.6L89.6 44l6.8-17.6 6 17.7-6.7 17.7z"/>
  <path class="st1" d="M42.6 47.8c0 1.2.9 2.1 2.1 2.1 1.2 0 2.1-.9 2.1-2.1s-.9-2.1-2.1-2.1c-1.2-.1-2.1.9-2.1 2.1zM93.6 44.1c0 1.3 1.1 2.4 2.4 2.4s2.4-1.1 2.4-2.4c0-1.3-1.1-2.4-2.4-2.4s-2.4 1.1-2.4 2.4z"/>
  <path class="st1" d="M96.9 17.2c-7.8-.2-14.3 2-19.1 6.7-5 4.8-7.4 11.3-8.5 16.9-.4-1.2-.9-2.3-1.4-3.5-4.4-9.5-12.3-14.7-22.9-15-7.5-.2-13.7 1.9-18.2 6.3-8.2 7.8-8.8 20.5-8.8 24.2v28.8h107V50.8c0-15.8-7.4-33-28.1-33.6zM68.1 78.3H21.4V52.8c0-3.4.6-14.9 7.7-21.9 3.9-3.8 9.2-5.6 15.8-5.4 22.9.7 23.2 26.5 23.2 27.6v25.2zm53.5 0H71.7V50.4c0-2.7.4-16.3 8.5-24.1 4.1-4 9.7-5.9 16.6-5.7 23 .7 24.8 23.3 24.8 30.2v27.5z"/>
</svg>